<svg width="145" height="43" viewBox="0 0 145 43" fill="none" xmlns="http://www.w3.org/2000/svg">
<path d="M28.2 11.12V9.6H43.6L49.24 32.6H50.88L47.64 9.6H55.28V11.12H53.52V35H39.88L34.72 12H33.08L35.84 35H28.2V33.48H29.96V11.12H28.2ZM66.0625 32.6H71.0625L72.1025 28.16H76.3825L77.3025 34.4C75.9692 34.7467 74.4758 35.0267 72.8225 35.24C71.1958 35.48 69.6892 35.6 68.3025 35.6C67.1558 35.6 65.9958 35.52 64.8225 35.36C63.6758 35.2267 62.6225 34.9067 61.6625 34.4C60.7025 33.8933 59.9292 33.1067 59.3425 32.04C58.7558 30.9467 58.4625 29.48 58.4625 27.64V22.44C58.4625 20.44 58.6492 18.8133 59.0225 17.56C59.4225 16.28 59.9692 15.2933 60.6625 14.6C61.3558 13.88 62.1558 13.3733 63.0625 13.08C63.9692 12.76 64.9558 12.5733 66.0225 12.52C67.0892 12.44 68.1825 12.4 69.3025 12.4C70.4225 12.4 71.4892 12.44 72.5025 12.52C73.5425 12.6 74.4492 12.84 75.2225 13.24C76.0225 13.6133 76.6492 14.2533 77.1025 15.16C77.5558 16.0667 77.7825 17.3467 77.7825 19C77.7825 20.6533 77.5558 21.9333 77.1025 22.84C76.6492 23.7467 76.0225 24.4 75.2225 24.8C74.4492 25.1733 73.5425 25.4 72.5025 25.48C71.4892 25.56 70.4225 25.6 69.3025 25.6H66.0625V32.6ZM66.0625 15.4V22.6H71.5425V15.4H66.0625ZM81.3734 13H83.3734L87.6934 8.28H90.5734V13H94.7734V14.92H90.5734V33H92.8534V29.04H94.7734V31.96C94.7734 33.48 94.2534 34.4667 93.2134 34.92C92.1734 35.3733 90.7868 35.6 89.0534 35.6C88.3868 35.6 87.6934 35.56 86.9734 35.48C86.2534 35.4 85.5868 35.1733 84.9734 34.8C84.3868 34.4 83.9068 33.7467 83.5334 32.84C83.1601 31.9333 82.9734 30.6533 82.9734 29V14.92H81.3734V13ZM96.1594 36.64C96.1594 35.28 96.3327 34.2133 96.6794 33.44C97.0527 32.6667 97.4794 32.1333 97.9594 31.84C98.466 31.52 98.9327 31.36 99.3594 31.36H102.359V30.84C101.479 30.6533 100.919 30.32 100.679 29.84C100.439 29.36 100.319 28.8533 100.319 28.32V25.84C99.306 25.4933 98.466 24.9067 97.7994 24.08C97.1594 23.2267 96.8394 21.9867 96.8394 20.36V19.52C96.8394 17.7333 97.0794 16.36 97.5594 15.4C98.0394 14.4133 98.6927 13.7067 99.5194 13.28C100.373 12.8533 101.333 12.6 102.399 12.52C103.493 12.44 104.639 12.4 105.839 12.4C107.546 12.4 108.866 12.6133 109.799 13.04C110.733 13.44 111.199 14.3067 111.199 15.64H111.719L112.119 14C112.413 12.8533 112.759 12.0667 113.159 11.64C113.586 11.2133 114.386 11 115.559 11H117.319V14.56H116.879C116.613 14.56 116.413 14.64 116.279 14.8C116.173 14.96 116.119 15.2533 116.119 15.68V20.36C116.119 21.88 115.839 23.0533 115.279 23.88C114.746 24.7067 113.999 25.2933 113.039 25.64C112.106 25.9867 111.026 26.2 109.799 26.28C108.599 26.36 107.333 26.4 105.999 26.4H104.559V27.36C104.559 28.16 104.653 28.7333 104.839 29.08C105.026 29.4267 105.386 29.6 105.919 29.6H111.879C112.599 29.6 113.373 29.7733 114.199 30.12C115.053 30.4667 115.773 31.08 116.359 31.96C116.946 32.84 117.239 34.0933 117.239 35.72C117.239 37.56 116.933 38.9867 116.319 40C115.733 41.04 114.653 41.76 113.079 42.16C111.506 42.5867 109.279 42.8 106.399 42.8C104.133 42.8 102.319 42.6933 100.959 42.48C99.5994 42.2933 98.5727 41.96 97.8794 41.48C97.186 41.0267 96.7194 40.4 96.4794 39.6C96.266 38.8267 96.1594 37.84 96.1594 36.64ZM109.239 23.12V15.64H103.759V23.12H109.239ZM111.479 34.6H101.799V38.8H111.479V34.6ZM142.394 22.44V25.56C142.394 27.56 142.194 29.2 141.794 30.48C141.421 31.7333 140.874 32.72 140.154 33.44C139.461 34.1333 138.647 34.64 137.714 34.96C136.807 35.2533 135.807 35.4267 134.714 35.48C133.621 35.56 132.487 35.6 131.314 35.6C130.007 35.6 128.754 35.5333 127.554 35.4C126.354 35.2933 125.274 34.9467 124.314 34.36C123.381 33.7467 122.647 32.76 122.114 31.4C121.581 30.0133 121.314 28.0667 121.314 25.56V22.44C121.314 20.44 121.501 18.8133 121.874 17.56C122.274 16.28 122.821 15.2933 123.514 14.6C124.234 13.88 125.047 13.3733 125.954 13.08C126.887 12.76 127.901 12.5733 128.994 12.52C130.087 12.44 131.221 12.4 132.394 12.4C133.727 12.4 134.981 12.4667 136.154 12.6C137.354 12.7067 138.421 13.0667 139.354 13.68C140.314 14.2667 141.061 15.2533 141.594 16.64C142.127 18 142.394 19.9333 142.394 22.44ZM134.794 32.6V15.4H128.914V32.6H134.794Z" fill="#1F332C"/>
<path d="M24.549 20.6716V11H15.7255M15.7255 11V16.0149L21.1176 20.6716L27 21.3881L21.1176 26.0448V35L15.7255 32.8507L11.8039 26.0448V21.3881V18.1642L2 16.0149L6.41176 13.1493L15.7255 11Z" stroke="#1F332C"/>
</svg>
